<svg xmlns="http://www.w3.org/2000/svg" width="28" height="28" viewBox="0 0 24 24" fill="currentColor" aria-hidden="true"><path d="M12 0C5.37 0 0 5.373 0 12c0 5.303 3.438 9.8 8.205 11.387.6.111.82-.261.82-.577 0-.285-.011-1.04-.017-2.04-3.338.726-4.042-1.613-4.042-1.613-.546-1.387-1.333-1.757-1.333-1.757-1.09-.745.083-.73.083-.73 1.205.085 1.84 1.238 1.84 1.238 1.07 1.835 2.809 1.305 3.495.998.108-.775.418-1.305.762-1.605-2.665-.305-5.467-1.335-5.467-5.93 0-1.31.467-2.381 1.235-3.221-.124-.303-.535-1.524.117-3.176 0 0 1.008-.322 3.301 1.23a11.52 11.52 0 0 1 3.003-.404c1.018.005 2.045.138 3.003.404 2.291-1.552 3.297-1.23 3.297-1.23.653 1.653.242 2.874.118 3.176.77.84 1.233 1.911 1.233 3.221 0 4.61-2.807 5.623-5.48 5.92.43.371.814 1.102.814 2.222 0 1.606-.015 2.898-.015 3.293 0 .319.216.694.824.576C20.565 21.796 24 17.302 24 12c0-6.627-5.373-12-12-12z"/></svg>